<?xml version="1.0" standalone="no"?>
<!DOCTYPE svg PUBLIC "-//W3C//DTD SVG 20010904//EN"
 "http://www.w3.org/TR/2001/REC-SVG-20010904/DTD/svg10.dtd">
<svg version="1.0" xmlns="http://www.w3.org/2000/svg"
 width="1024.000000pt" height="1024.000000pt" viewBox="0 0 1024.000000 1024.000000"
 preserveAspectRatio="xMidYMid meet">

<g transform="translate(0.000000,1024.000000) scale(0.100000,-0.100000)"
fill="#000000" stroke="none">
<path d="M6500 7715 c-257 -41 -526 -171 -765 -370 -99 -82 -175 -155 -427
-403 l-196 -195 -258 248 c-286 275 -403 376 -544 470 -267 178 -503 255 -780
255 -192 0 -335 -32 -493 -111 -311 -155 -501 -409 -578 -772 -32 -147 -32
-427 0 -574 79 -374 294 -659 617 -821 161 -81 312 -116 499 -115 194 1 368
44 554 138 253 127 426 262 777 607 110 109 203 198 206 198 3 0 52 -46 109
-103 217 -214 367 -355 459 -432 251 -208 520 -344 775 -391 129 -24 344 -15
477 19 398 104 707 406 812 797 37 140 47 219 47 376 0 364 -111 655 -335 880
-241 242 -601 355 -956 299z m-2768 -366 c203 -41 402 -147 624 -332 114 -95
524 -494 524 -510 0 -16 -362 -371 -475 -465 -206 -172 -411 -288 -590 -333
-123 -31 -304 -31 -420 0 -151 40 -249 97 -358 206 -169 168 -256 383 -257
627 -1 417 264 747 657 818 56 11 220 4 295 -11z m3153 -9 c443 -140 675 -643
509 -1108 -96 -272 -310 -465 -584 -527 -98 -22 -270 -22 -375 0 -283 58 -539
231 -938 632 l-168 169 238 235 c131 129 276 266 323 305 201 169 382 267 570
309 99 22 334 14 425 -15z"/>
<path d="M1912 4793 c-18 -9 -45 -32 -60 -51 -22 -29 -27 -48 -30 -109 l-4
-73 -44 0 -44 0 0 -49 0 -50 43 -3 42 -3 3 -207 2 -208 55 0 55 0 0 210 0 210
73 0 72 0 2 50 2 50 -75 0 -74 0 0 40 c0 86 47 122 135 106 l35 -7 0 49 c0 43
-3 50 -22 56 -43 11 -133 6 -166 -11z"/>
<path d="M2174 4792 c-16 -10 -34 -48 -34 -69 0 -55 88 -84 125 -43 41 45 10
120 -49 120 -17 0 -36 -4 -42 -8z"/>
<path d="M2986 4778 c-22 -30 -20 -81 2 -101 28 -25 87 -22 106 5 37 53 5 118
-58 118 -25 0 -39 -7 -50 -22z"/>
<path d="M5310 4418 l0 -378 60 0 60 0 0 160 c0 173 9 214 51 244 30 20 98 21
126 1 34 -24 43 -76 43 -247 l0 -158 58 0 57 0 -5 207 c-5 195 -6 210 -28 245
-28 45 -92 78 -153 78 -49 0 -117 -29 -134 -57 -7 -13 -11 22 -15 132 l-5 149
-57 1 -58 0 0 -377z"/>
<path d="M8610 4780 c-26 -26 -26 -81 -2 -103 28 -25 87 -22 106 5 50 71 -43
159 -104 98z"/>
<path d="M944 4771 c-2 -2 -4 -168 -4 -368 l0 -363 65 0 65 0 -2 368 -3 367
-58 0 c-32 0 -60 -2 -63 -4z"/>
<path d="M4710 4718 l0 -58 100 0 100 0 0 -310 0 -310 65 0 65 0 0 310 0 310
98 0 97 0 -1 55 -2 56 -261 2 -261 2 0 -57z"/>
<path d="M3323 4707 l-53 -10 0 -68 0 -69 -40 0 -40 0 0 -50 0 -50 40 0 40 0
0 -156 c0 -177 9 -209 66 -245 27 -16 50 -21 105 -20 38 0 73 2 77 5 4 2 7 26
6 52 l-1 48 -44 -3 c-32 -1 -52 3 -67 16 -20 17 -22 28 -24 158 l-3 140 68 0
69 0 2 53 3 52 -73 0 -73 0 4 80 c3 44 2 79 -3 79 -4 -1 -31 -6 -59 -12z"/>
<path d="M1400 4559 c-14 -6 -37 -22 -52 -36 l-28 -27 0 32 0 32 -57 0 -58 0
3 -260 3 -260 54 0 55 0 0 148 c0 81 5 164 10 184 24 84 123 117 180 60 24
-24 29 -40 35 -103 4 -41 5 -123 3 -182 l-3 -107 58 0 57 0 0 183 c0 202 -7
242 -51 292 -44 50 -142 70 -209 44z"/>
<path d="M2600 4554 c-19 -8 -45 -25 -57 -36 l-23 -21 0 31 0 32 -61 0 c-52 0
-60 -2 -55 -16 3 -9 6 -126 6 -260 l0 -244 55 0 55 0 0 143 c0 78 5 160 10
182 20 89 120 126 180 67 35 -36 43 -88 38 -265 l-3 -127 58 0 57 0 0 193 c0
208 -8 245 -61 294 -49 44 -132 56 -199 27z"/>
<path d="M4260 4548 c-62 -32 -84 -66 -83 -128 1 -84 40 -122 166 -162 78 -24
103 -50 88 -90 -11 -30 -29 -38 -82 -38 -30 0 -47 8 -77 35 l-39 35 -42 -20
c-41 -20 -41 -21 -26 -49 73 -143 335 -129 375 20 26 96 -21 161 -149 204 -87
29 -104 42 -99 77 7 52 86 61 132 14 l23 -22 42 20 c22 11 41 23 41 28 0 4
-16 23 -35 42 -59 59 -158 73 -235 34z"/>
<path d="M6055 4561 c-105 -26 -182 -118 -192 -232 -11 -117 36 -213 129 -264
45 -26 64 -30 128 -30 64 0 83 4 128 29 43 24 102 81 102 100 0 2 -24 11 -52
20 -52 15 -53 15 -79 -10 -75 -72 -215 -35 -235 64 l-6 32 191 0 191 0 0 48
c0 168 -144 282 -305 243z m121 -106 c23 -10 39 -26 49 -49 8 -20 15 -38 15
-41 0 -3 -56 -5 -125 -5 -81 0 -125 4 -125 10 0 26 32 68 62 83 41 21 79 21
124 2z"/>
<path d="M6961 4555 c-50 -16 -115 -74 -130 -116 -9 -28 -8 -29 32 -39 23 -6
47 -13 54 -15 6 -2 21 12 32 31 50 84 169 67 190 -28 l9 -38 -87 0 c-106 0
-151 -12 -196 -51 -41 -37 -58 -88 -46 -142 13 -55 34 -82 84 -106 72 -35 167
-22 219 29 l28 28 0 -34 0 -34 70 0 70 0 0 50 c0 36 -4 50 -14 50 -11 0 -15
30 -18 148 -4 161 -12 188 -68 235 -55 47 -143 59 -229 32z m179 -321 c0 -89
-148 -142 -195 -70 -12 18 -13 30 -5 50 13 36 61 55 138 56 l62 0 0 -36z"/>
<path d="M7597 4556 c-22 -8 -50 -24 -63 -37 l-24 -22 0 31 0 32 -60 0 -60 0
0 -375 0 -375 60 0 60 0 0 146 0 147 26 -27 c49 -48 169 -60 242 -22 42 22 89
71 114 120 34 63 31 183 -4 252 -27 52 -68 93 -118 119 -43 22 -129 28 -173
11z m119 -112 c101 -48 108 -224 12 -284 -51 -32 -128 -24 -172 19 -130 126 0
341 160 265z"/>
<path d="M8170 4555 c-107 -33 -174 -134 -173 -260 0 -80 16 -125 63 -179 97
-110 269 -114 382 -8 26 25 48 48 48 53 0 5 -23 15 -51 23 l-52 16 -33 -30
c-45 -39 -93 -47 -150 -25 -47 18 -69 42 -84 94 l-9 31 195 0 194 0 0 38 c0
149 -112 264 -252 261 -18 0 -53 -7 -78 -14z m165 -115 c13 -12 28 -35 34 -51
l10 -29 -130 0 c-71 0 -129 2 -129 5 0 20 36 69 63 86 43 27 117 21 152 -11z"/>
<path d="M8986 4559 c-22 -5 -54 -19 -73 -30 -35 -22 -89 -102 -79 -118 3 -5
22 -12 42 -15 19 -4 41 -9 49 -12 8 -3 19 6 27 23 7 15 30 36 51 47 33 16 45
17 77 7 46 -14 59 -29 67 -75 l6 -36 -80 0 c-130 0 -204 -32 -242 -107 -31
-60 5 -160 69 -194 65 -35 174 -21 227 30 29 27 31 27 27 -9 l-4 -30 75 0 75
0 0 46 c0 37 -4 47 -20 51 -19 5 -20 14 -20 149 0 78 -5 155 -11 171 -32 87
-144 130 -263 102z m162 -316 c5 -35 -26 -83 -63 -99 -74 -31 -145 -6 -145 49
0 48 61 77 155 74 43 -2 50 -5 53 -24z"/>
<path d="M2150 4300 l0 -260 60 0 60 0 0 260 0 260 -60 0 -60 0 0 -260z"/>
<path d="M2980 4300 l0 -260 60 0 60 0 0 260 0 260 -60 0 -60 0 0 -260z"/>
<path d="M3622 4358 c3 -183 5 -207 24 -243 51 -98 215 -115 282 -30 l22 28 0
-37 0 -36 60 0 60 0 0 260 0 260 -59 0 -59 0 -4 -172 c-2 -145 -6 -177 -21
-199 -49 -73 -167 -62 -184 19 -4 20 -8 108 -8 195 l0 157 -58 0 -58 0 3 -202z"/>
<path d="M6465 4300 l0 -260 58 0 57 0 0 131 c0 214 22 259 130 267 l60 4 0
59 0 59 -39 0 c-51 0 -89 -15 -123 -48 l-28 -26 0 37 0 37 -57 0 -58 0 0 -260z"/>
<path d="M8600 4300 l0 -260 60 0 60 0 0 260 0 260 -60 0 -60 0 0 -260z"/>
<path d="M4540 3513 l0 -231 135 -1 135 -2 0 36 0 35 -100 0 -100 0 0 198 0
197 -35 0 -35 0 0 -232z"/>
<path d="M4947 3744 c-1 -1 -1 -106 1 -233 l3 -231 134 0 135 0 0 35 0 35
-100 0 -100 0 0 194 0 194 -35 4 c-20 2 -37 3 -38 2z"/>
<path d="M5440 3734 c-84 -36 -133 -115 -133 -214 1 -174 132 -275 298 -229
43 12 120 80 113 101 -2 6 -17 16 -32 21 -24 8 -31 6 -50 -16 -80 -98 -241
-33 -254 102 -7 74 26 137 85 163 58 25 116 17 155 -23 26 -25 32 -27 56 -17
15 7 29 13 31 15 7 4 -32 57 -53 73 -55 40 -153 51 -216 24z"/>
<path d="M2130 2873 l0 -87 -20 22 c-29 31 -67 38 -114 21 -102 -36 -108 -204
-8 -246 44 -18 103 -5 127 30 l15 21 0 -27 c0 -20 5 -27 20 -27 19 0 20 7 20
190 0 183 -1 190 -20 190 -18 0 -20 -7 -20 -87z m-29 -102 c74 -74 -7 -194
-99 -147 -35 18 -42 33 -42 87 0 83 83 118 141 60z"/>
<path d="M2260 2770 c0 -183 1 -190 20 -190 19 0 20 7 20 190 0 183 -1 190
-20 190 -19 0 -20 -7 -20 -190z"/>
<path d="M3450 2769 c0 -179 1 -189 19 -189 17 0 19 10 23 96 3 105 14 124 69
124 49 0 59 -21 59 -126 0 -94 0 -94 25 -94 24 0 25 2 25 73 -1 86 -13 144
-35 166 -22 23 -97 21 -124 -3 l-20 -18 -3 77 c-3 65 -6 79 -20 81 -17 2 -18
-12 -18 -187z"/>
<path d="M7360 2771 l0 -191 26 0 c19 0 25 4 20 15 -7 20 3 19 27 -2 25 -24
95 -23 131 0 55 37 71 133 31 193 -33 51 -133 68 -165 29 -24 -29 -30 -14 -28
63 3 73 2 77 -19 80 l-23 3 0 -190z m184 7 c72 -65 13 -187 -79 -164 -34 9
-60 51 -60 99 0 74 85 113 139 65z"/>
<path d="M7820 2770 c0 -183 1 -190 20 -190 19 0 20 7 20 190 0 183 -1 190
-20 190 -19 0 -20 -7 -20 -190z"/>
<path d="M1360 2765 l0 -185 105 0 c102 0 105 1 105 23 0 21 -3 22 -85 21
l-85 -2 0 65 0 64 77 -2 c72 -2 77 -1 78 19 2 21 -3 22 -77 22 l-78 0 0 55 0
55 85 0 c84 0 85 0 85 25 l0 25 -105 0 -105 0 0 -185z"/>
<path d="M5606 2935 c-17 -17 -12 -40 9 -49 15 -5 45 18 45 34 0 5 -9 14 -19
20 -15 7 -23 6 -35 -5z"/>
<path d="M7243 2943 c-18 -6 -16 -50 1 -56 8 -3 22 1 33 8 28 21 -1 62 -34 48z"/>
<path d="M7680 2935 c-18 -21 -5 -47 22 -43 26 3 37 36 16 49 -18 12 -24 11
-38 -6z"/>
<path d="M7950 2935 c-18 -21 -5 -47 22 -43 26 3 37 36 16 49 -18 12 -24 11
-38 -6z"/>
<path d="M8286 2934 c-9 -8 -16 -17 -16 -19 0 -2 7 -11 16 -19 18 -18 54 -6
54 19 0 25 -36 37 -54 19z"/>
<path d="M3287 2909 c-11 -7 -17 -22 -17 -44 0 -28 -4 -35 -20 -35 -13 0 -20
-7 -20 -19 0 -14 5 -18 20 -14 19 5 20 0 21 -73 1 -99 8 -125 40 -143 33 -19
79 -8 79 19 0 16 -5 19 -30 14 -38 -8 -43 5 -44 105 l-1 76 38 -2 c30 -1 37 2
37 17 0 14 -9 20 -37 22 -36 3 -38 5 -39 40 -1 45 -4 49 -27 37z"/>
<path d="M5428 2912 c-14 -2 -18 -13 -18 -43 0 -32 -3 -39 -20 -39 -13 0 -20
-7 -20 -19 0 -14 5 -18 20 -14 19 5 20 0 20 -76 0 -114 16 -141 83 -141 31 0
37 3 37 21 0 16 -5 20 -20 16 -41 -10 -54 15 -54 99 l1 78 34 1 c23 0 35 6 37
17 2 13 -6 17 -35 20 -37 3 -38 4 -39 40 -1 43 -2 46 -26 40z"/>
<path d="M8098 2873 c-2 -31 -7 -39 -25 -41 -15 -2 -23 -10 -23 -23 0 -15 6
-19 23 -17 21 3 22 0 27 -95 4 -83 8 -101 24 -113 34 -24 86 -15 86 16 0 13
-5 17 -20 13 -39 -10 -50 13 -50 104 l0 84 35 -7 c31 -5 35 -4 35 15 0 17 -6
21 -35 21 -34 0 -35 1 -35 40 0 33 -3 40 -19 40 -16 0 -20 -8 -23 -37z"/>
<path d="M1635 2832 c-3 -3 -5 -61 -5 -129 l0 -123 25 0 c25 0 25 0 25 94 0
87 2 96 22 110 33 23 74 20 92 -6 12 -16 16 -47 16 -110 0 -83 1 -88 21 -88
20 0 21 4 17 106 -3 102 -4 107 -31 130 -15 13 -39 24 -52 24 -28 0 -75 -20
-75 -32 0 -4 -4 -8 -10 -8 -5 0 -10 8 -10 18 0 17 -23 26 -35 14z"/>
<path d="M2428 2825 c-38 -21 -58 -65 -58 -124 0 -42 5 -56 30 -85 49 -56 132
-55 183 1 16 19 16 21 2 27 -10 3 -28 -3 -42 -14 -14 -11 -34 -20 -45 -20 -41
0 -87 38 -88 73 0 15 11 17 99 17 l98 0 -7 41 c-4 23 -19 53 -33 66 -31 32
-100 40 -139 18z m112 -45 c37 -37 26 -45 -52 -43 -78 2 -87 11 -46 46 27 23
73 22 98 -3z"/>
<path d="M2703 2829 c-12 -6 -27 -25 -34 -41 -10 -25 -9 -33 8 -56 11 -15 40
-32 69 -41 51 -17 66 -39 44 -66 -17 -21 -53 -19 -81 4 -18 14 -28 17 -42 9
-18 -9 -18 -11 -2 -28 24 -26 79 -43 115 -35 32 7 70 47 70 75 0 29 -38 68
-73 75 -17 4 -42 13 -55 21 -18 12 -20 18 -12 34 13 24 62 27 80 5 9 -11 17
-12 32 -4 20 11 20 11 1 31 -24 23 -89 32 -120 17z"/>
<path d="M2935 2830 c-33 -13 -47 -36 -43 -72 3 -33 5 -35 92 -75 46 -21 53
-34 31 -57 -22 -21 -57 -20 -87 3 -15 12 -29 16 -37 12 -21 -13 4 -48 44 -61
46 -15 90 -5 115 27 41 52 17 96 -68 123 -39 13 -47 19 -47 40 0 20 6 26 29
28 16 2 40 -2 53 -9 37 -20 51 3 17 30 -28 22 -64 26 -99 11z"/>
<path d="M3783 2821 c-42 -27 -56 -55 -56 -117 0 -37 6 -61 22 -83 41 -57 139
-61 190 -7 22 24 22 24 2 31 -13 4 -27 -1 -40 -14 -44 -44 -131 -7 -131 55 0
11 20 14 95 14 l95 0 0 35 c0 81 -104 132 -177 86z m110 -38 c34 -39 26 -46
-48 -44 -38 2 -72 4 -74 7 -2 2 6 15 19 29 28 30 79 34 103 8z"/>
<path d="M4025 2832 c-3 -3 -5 -61 -5 -129 l0 -123 25 0 c25 0 25 1 25 89 0
82 2 91 22 105 12 9 32 16 44 16 13 0 24 8 27 20 4 16 0 20 -23 20 -15 0 -39
-9 -54 -21 l-26 -20 0 24 c0 21 -21 33 -35 19z"/>
<path d="M4261 2828 c-13 -7 -30 -23 -39 -35 -13 -20 -13 -23 2 -29 11 -4 26
2 40 15 27 26 67 27 89 3 33 -36 22 -52 -33 -52 -106 0 -152 -61 -96 -127 29
-34 92 -39 125 -9 19 17 21 17 21 3 0 -12 9 -17 30 -17 30 0 42 21 20 35 -5 3
-10 42 -10 85 0 67 -3 83 -23 105 -26 31 -89 43 -126 23z m107 -153 c1 -11 -7
-31 -19 -43 -26 -29 -75 -27 -96 5 -13 19 -12 24 7 43 29 29 104 25 108 -5z"/>
<path d="M4490 2644 c0 -187 1 -194 20 -194 18 0 20 7 20 87 l0 86 23 -21 c32
-30 76 -37 119 -19 129 54 81 270 -55 253 -21 -2 -46 -11 -56 -20 -22 -20 -31
-20 -31 -2 0 7 -9 16 -20 19 -19 5 -20 0 -20 -189z m182 136 c74 -57 18 -185
-73 -165 -42 9 -64 41 -64 92 0 37 5 49 28 69 34 29 76 31 109 4z"/>
<path d="M4872 2825 c-43 -19 -77 -91 -67 -143 20 -107 141 -145 214 -68 23
24 23 24 2 31 -13 4 -27 -1 -42 -16 -40 -40 -129 -4 -129 52 0 17 9 19 95 19
l95 0 0 25 c0 59 -56 116 -112 115 -13 -1 -38 -7 -56 -15z m108 -52 l22 -28
-74 -5 c-40 -3 -75 -1 -77 3 -2 5 7 19 20 33 32 34 81 33 109 -3z"/>
<path d="M5785 2826 c-79 -35 -95 -146 -32 -214 28 -30 87 -45 124 -31 29 11
73 47 73 60 0 13 -41 18 -46 4 -8 -19 -59 -38 -84 -30 -62 20 -83 113 -35 160
13 14 33 25 44 25 25 0 71 -20 71 -32 0 -11 37 -11 44 0 3 5 -7 21 -22 35 -33
32 -95 43 -137 23z"/>
<path d="M6148 2832 c-16 -3 -18 -20 -18 -193 0 -189 0 -190 22 -187 20 3 21
8 19 88 l-2 85 25 -24 c32 -31 99 -34 140 -8 63 42 74 154 19 209 -43 42 -96
48 -145 15 l-37 -26 -3 22 c-2 15 -9 21 -20 19z m169 -56 c23 -20 28 -32 28
-71 0 -39 -5 -51 -28 -71 -32 -28 -56 -30 -96 -9 -57 29 -65 115 -14 155 34
27 76 25 110 -4z"/>
<path d="M6523 2829 c-70 -21 -100 -108 -64 -183 46 -95 187 -95 227 -1 37 90
-9 179 -97 190 -19 2 -48 0 -66 -6z m109 -59 c27 -27 30 -36 25 -71 -6 -48
-28 -76 -67 -84 -70 -15 -125 60 -96 130 27 63 89 74 138 25z"/>
<path d="M6788 2820 c-21 -16 -28 -30 -28 -55 0 -38 13 -51 76 -73 55 -20 74
-43 55 -66 -19 -22 -67 -20 -91 4 -11 11 -26 17 -35 14 -21 -8 -19 -17 11 -45
54 -51 164 -17 164 51 0 39 -19 58 -80 77 -47 16 -55 21 -55 43 0 20 6 26 28
28 16 2 36 -3 46 -12 14 -13 20 -14 35 -3 16 12 16 14 -3 31 -32 29 -91 32
-123 6z"/>
<path d="M7040 2833 c-32 -12 -50 -37 -50 -68 0 -38 13 -51 76 -73 55 -20 74
-43 55 -66 -19 -22 -67 -20 -91 4 -11 11 -26 17 -35 14 -21 -8 -19 -17 11 -45
54 -51 165 -17 164 50 -1 39 -22 60 -81 79 -46 15 -54 21 -54 42 0 21 5 26 31
28 18 2 38 -3 47 -12 12 -12 18 -13 31 -3 16 12 16 14 -2 30 -21 19 -77 30
-102 20z"/>
<path d="M7238 2709 c-3 -128 -3 -129 20 -129 22 0 22 2 22 124 0 114 -2 124
-19 129 -19 5 -20 -2 -23 -124z"/>
<path d="M7968 2833 c-16 -4 -18 -19 -18 -129 0 -117 1 -124 20 -124 19 0 20
7 20 130 0 72 -1 129 -2 129 -2 -1 -11 -3 -20 -6z"/>
<path d="M8465 2826 c-40 -17 -52 -33 -66 -87 -10 -39 -10 -50 8 -90 37 -83
127 -101 195 -40 l32 28 -23 8 c-17 5 -26 3 -33 -8 -20 -38 -115 -24 -132 18
-16 42 -10 45 89 45 l95 0 0 25 c0 59 -56 116 -112 115 -13 -1 -37 -7 -53 -14z
m104 -53 c12 -14 20 -27 19 -28 -2 -2 -36 -5 -75 -7 -79 -5 -87 1 -51 39 31
33 80 31 107 -4z"/>
<path d="M8718 2820 c-21 -16 -28 -30 -28 -55 0 -38 13 -51 76 -73 59 -21 77
-47 50 -68 -28 -20 -62 -18 -86 6 -11 11 -26 17 -35 14 -21 -8 -19 -17 11 -45
55 -51 164 -17 164 51 0 34 -30 61 -88 80 -39 13 -47 19 -47 40 0 30 34 39 71
20 12 -7 31 -10 40 -6 16 6 16 8 -3 27 -31 31 -92 36 -125 9z"/>
<path d="M5102 2733 c7 -115 11 -129 49 -148 40 -21 63 -19 98 11 30 25 31 25
31 5 0 -14 6 -21 20 -21 19 0 20 7 20 125 0 118 -1 125 -20 125 -18 0 -20 -7
-20 -69 0 -84 -13 -125 -46 -140 -34 -15 -48 -14 -67 7 -13 15 -17 39 -17 110
l0 92 -26 0 -27 0 5 -97z"/>
<path d="M5604 2705 c1 -123 1 -125 23 -125 23 0 23 2 23 125 0 124 0 125 -23
125 -24 0 -24 0 -23 -125z"/>
<path d="M7680 2705 c0 -123 0 -125 23 -125 22 0 22 2 25 125 l2 125 -25 0
-25 0 0 -125z"/>
<path d="M8280 2705 l0 -125 25 0 25 0 0 125 0 125 -25 0 -25 0 0 -125z"/>
</g>
</svg>
